<?xml version="1.0" encoding="utf-8"?>
<!-- Generator: Adobe Illustrator 23.0.6, SVG Export Plug-In . SVG Version: 6.00 Build 0)  -->
<svg version="1.1" id="Layer_1" xmlns="http://www.w3.org/2000/svg" xmlns:xlink="http://www.w3.org/1999/xlink" x="0px" y="0px"
	 viewBox="0 0 512 414" style="enable-background:new 0 0 512 414;" xml:space="preserve">
<style type="text/css">
	.st0{fill-rule:evenodd;clip-rule:evenodd;fill:#333E7E;}
	.st1{fill:#F17B29;}
	.st2{fill-rule:evenodd;clip-rule:evenodd;fill:#3CAD54;}
	.st3{fill-rule:evenodd;clip-rule:evenodd;fill:#231F20;}
	.st4{fill-rule:evenodd;clip-rule:evenodd;fill:#FFFFFF;}
	.st5{fill-rule:evenodd;clip-rule:evenodd;fill:#F17B29;}
	.st6{fill-rule:evenodd;clip-rule:evenodd;fill:#175A97;}
	.st7{fill-rule:evenodd;clip-rule:evenodd;fill:#F05F33;}
</style>
<g>
	<path class="st0" d="M18.8,302.2l8.6-12.2c5.2,5.4,13.2,10,23.4,10c8.7,0,12.8-3.9,12.8-8.1c0-12.8-42.3-3.8-42.3-31.6
		c0-12.2,10.6-22.3,27.9-22.3c11.6,0,21.4,3.5,28.6,10.2L69,259.9c-5.9-5.5-13.9-8-21.3-8c-6.6,0-10.3,2.8-10.3,7.3
		c0,11.5,42.1,3.7,42.1,31.1c0,13.5-9.7,23.6-29.4,23.6C35.9,313.9,25.8,309.1,18.8,302.2L18.8,302.2z"/>
	<polygon class="st0" points="124.1,312.5 110.1,292.1 103.7,298.9 103.7,312.5 89.7,312.5 89.7,239.1 103.7,239.1 103.7,283 
		123.8,259.4 141,259.4 119.9,283.5 141.6,312.5 124.1,312.5 	"/>
	<polygon class="st0" points="261,239.1 276.6,239.1 276.6,312.5 261,312.5 261,239.1 	"/>
	<path class="st0" d="M326.6,312.5v-32.1c0-7.3-3.8-10-9.7-10c-5.5,0-9.7,3.2-12.2,6.2v35.9h-14v-53.1h14v6.8c3.4-4,10-8.1,18.7-8.1
		c11.7,0,17.4,6.6,17.4,16.9v37.6H326.6L326.6,312.5z"/>
	<path class="st0" d="M391.1,312.5v-6.8c-4.2,5.4-9.9,8.2-16.4,8.2c-13.3,0-23.6-10.1-23.6-27.9c0-17.3,10.1-27.9,23.6-27.9
		c6.3,0,12.2,2.6,16.4,8.1v-27.1h14v73.4H391.1L391.1,312.5z M391.1,295.4v-18.9c-2.4-3.5-7.4-6.2-12-6.2c-8.1,0-13.5,6.4-13.5,15.5
		c0,9.2,5.5,15.6,13.5,15.6C383.7,301.5,388.7,298.9,391.1,295.4L391.1,295.4z"/>
	<path class="st0" d="M417.7,245.2c0-4.6,3.8-8.3,8.3-8.3c4.6,0,8.4,3.7,8.4,8.3c0,4.7-3.8,8.4-8.4,8.4
		C421.5,253.6,417.7,249.9,417.7,245.2L417.7,245.2z M419.1,259.4h14v53.1h-14V259.4L419.1,259.4z M419.1,312.5v-53.1V312.5z"/>
	<path class="st0" d="M478.9,312.5v-5.6c-3.7,4.4-9.9,6.9-16.8,6.9c-8.5,0-18.4-5.7-18.4-17.6c0-12.6,9.9-17.2,18.4-17.2
		c7.2,0,13.4,2.3,16.8,6.6v-6.7c0-5.4-4.7-9-11.6-9c-5.7,0-10.9,2.2-15.3,6.2l-5.5-9.7c6.5-5.9,14.8-8.4,23.2-8.4
		c12.2,0,23.3,4.9,23.3,20.2v34.3H478.9L478.9,312.5z M478.9,299.8v-6.6c-2.3-3.1-6.7-4.7-11.2-4.7c-5.5,0-10,2.9-10,8
		c0,5.1,4.5,7.9,10,7.9C472.2,304.4,476.6,302.8,478.9,299.8L478.9,299.8z"/>
	<polygon class="st1" points="155.7,246.6 145.3,260.6 148.7,260.6 148.7,312.5 162.6,312.5 162.6,260.6 166,260.6 155.7,246.6 	"/>
	<polygon class="st2" points="183.6,227.2 173.2,241.4 176.6,241.4 176.6,312.5 190.6,312.5 190.6,241.4 193.9,241.4 183.6,227.2 	
		"/>
	<polygon class="st0" points="211.4,227.2 201.1,241.4 204.4,241.4 204.4,312.5 218.4,312.5 218.4,241.4 221.8,241.4 211.4,227.2 	
		"/>
	<path class="st3" d="M47.5,365.4c-2.5,0-4.1,1.9-4.1,4.3v13.6h-6.7v-6.6h-0.2c-0.9,0.7-2.6,1.8-5.2,1.8c-5,0-9-3.7-9-9.3
		c0-6.7,5.4-10,11.1-9.4l1.1,5.8c-3.2-0.8-5.6,0.8-5.6,3.7c0,2.1,1.7,3.6,3.9,3.6c2.4,0,4-1.9,4-4.4v-12.2H19.4v-5.2h41.2v5.2H43.3
		v5.5h0.2c1.1-1,2.9-1.9,5.3-1.9c5,0,9,3.6,9,9.2c0,6.7-5.4,9.9-11,9.5l-1.1-5.8c3.2,0.7,5.5-1,5.5-3.8
		C51.1,366.9,49.6,365.4,47.5,365.4L47.5,365.4z"/>
	<path class="st3" d="M69,356.3v27h-6.8v-27h-5v-5.2h2.3v-0.3c-4.4-1.8-9.6-5.4-14.4-9.8l5.8-3.6l13.2,13.8h0.3l-8.2-12.6l7.3-1.6
		l5.3,14.2h5.2v5.2H69L69,356.3z"/>
	<path class="st3" d="M80.7,365c-3.3-0.8-5-3.4-5-6.6c0-4.2,3.8-7.8,9-7.8c7.1,0,10.4,4.8,10.4,9.7c0,7.8-6.2,11.5-11.8,11.6v0.2
		c1.5,0.8,3.9,2.3,6.2,4.5l4.5,4l-5.6,3.9l-11.8-10.8l-4.1-3l3.8-5c1.6,0.8,3.5,1.1,4.9,1.1c4.2,0,7-2.4,7-6.4
		c0-2.9-1.5-4.4-3.2-4.4c-1.7,0-2.6,1.1-2.6,2.3c0,1.2,0.7,2.4,2.2,2.9L80.7,365L80.7,365z M98.9,351.1h11.9v5.2h-5v27h-6.8V351.1
		L98.9,351.1z"/>
	<path class="st3" d="M133.9,361.3v-5h-26.4v-5.2h38.3v5.2h-5v27h-6.8v-16.6c-0.5-0.3-1.5-0.7-2.4-0.7c-1.9,0-2.8,1.3-2.8,3.9v4.5
		h-6.2v-4.9c0-2.2-1-3.4-2.7-3.4c-1.3,0-2.9,0.8-2.9,4.2c0,2.9,1.6,6.7,6.9,9.5l-4.3,4.4c-5.9-2.9-9.4-8.4-9.4-14.3
		c0-6.5,4.5-9.5,8.9-9.5c3,0,5.2,1.2,6.1,3.6h0.2c0.6-2.6,2.8-3.8,4.7-3.8c1.2,0,2.6,0.2,3.5,1.1H133.9L133.9,361.3z"/>
	<path class="st3" d="M172.8,351.1h15.7v5.2h-5v27h-6.7v-13.2h-8.1v5.1h-6.2c-2.8-2.1-3.9-5.9-3.9-8.2l3.7-2.8v-5.4
		c0-1.9-0.9-2.6-2.5-2.6h-3.3v-5.2h4.6c3.3,0,7.9,1.2,7.9,7.3v5.7h7.9v-7.9h-4V351.1L172.8,351.1z"/>
	<polygon class="st3" points="197,356.3 197,383.3 190.2,383.3 190.2,356.3 185.1,356.3 185.1,351.1 201.9,351.1 201.9,356.3 
		197,356.3 	"/>
	<path class="st3" d="M211.3,371.1c1.1,1,2,2,3.9,4.3l4.4,5.3l-5.6,3.5l-13.8-17.1l5.1-3.9c1.4,2.1,2.5,2.9,3.9,2.9
		c1.1,0,2-0.6,2-2.4v-7.3h-12.6v-5.2h24.1v5.2h-4.8v7.4c0,4.7-2.8,6.7-6.1,7.1c-0.1,0-0.3,0.1-0.5,0.1V371.1L211.3,371.1z"/>
	<path class="st3" d="M230.4,384c-3.7-2.5-7.6-7.3-7.6-13.7c0-7,5.3-9.6,10-9.6h6v-4.4h-19.4v-5.2h31.3v5.2h-5.1v27h-6.8v-16.9h-4.8
		c-2.3,0-4.2,1.2-4.2,4.1c0,3.7,2.1,6.9,5.5,9.2L230.4,384L230.4,384z"/>
	<path class="st3" d="M305,365.4c-2.5,0-4.1,1.9-4.1,4.3v13.6h-6.8v-6.6H294c-0.9,0.7-2.5,1.8-5.2,1.8c-5,0-9.1-3.7-9.1-9.3
		c0-6.7,5.4-10,11.1-9.4l1,5.8c-3.1-0.8-5.5,0.8-5.5,3.7c0,2.1,1.6,3.6,3.8,3.6c2.5,0,4-1.9,4-4.4v-12.2h-15.3v-5.2h39.2v5.2h-17.2
		v5.5h0.1c1.1-1,3-1.9,5.3-1.9c4.9,0,8.9,3.6,8.9,9.2c0,6.7-5.4,9.9-11.1,9.5l-1-5.8c3.1,0.7,5.4-1,5.4-3.8
		C308.6,366.9,307.1,365.4,305,365.4L305,365.4z"/>
	<path class="st3" d="M324.7,365c-3.3-0.8-5-3.4-5-6.6c0-4.2,3.8-7.8,8.9-7.8c7.2,0,10.3,4.8,10.3,9.7c0,7.8-6.1,11.5-11.8,11.6v0.2
		c1.5,0.8,4,2.3,6.3,4.5l4.4,4l-5.6,3.9l-11.8-10.8l-4-3l3.8-5c1.7,0.8,3.5,1.1,5,1.1c4.1,0,6.9-2.4,6.9-6.4c0-2.9-1.4-4.4-3.2-4.4
		c-1.7,0-2.6,1.1-2.6,2.3c0,1.2,0.8,2.4,2.3,2.9L324.7,365L324.7,365z M343,351.1h11.8v5.2h-5v27H343V351.1L343,351.1z"/>
	<path class="st3" d="M377.9,361.3v-5h-26.4v-5.2h38.3v5.2h-5.1v27h-6.8v-16.6c-0.4-0.3-1.5-0.7-2.2-0.7c-2,0-2.8,1.3-2.8,3.9v4.5
		h-6.2v-4.9c0-2.2-1.1-3.4-2.7-3.4c-1.3,0-2.9,0.8-2.9,4.2c0,2.9,1.6,6.7,6.9,9.5l-4.3,4.4c-5.7-2.9-9.3-8.4-9.3-14.3
		c0-6.5,4.5-9.5,9-9.5c2.9,0,5.1,1.2,6.1,3.6h0.2c0.5-2.6,2.7-3.8,4.6-3.8c1.2,0,2.7,0.2,3.5,1.1H377.9L377.9,361.3z"/>
	<path class="st3" d="M416.8,351.1h15.7v5.2h-5v27h-6.7v-13.2h-8v5.1h-6.2c-2.9-2.1-3.8-5.9-3.8-8.2l3.6-2.8v-5.4
		c0-1.9-0.9-2.6-2.6-2.6h-4.4v-5.2h5.7c3.3,0,7.9,1.2,7.9,7.3v5.7h7.8v-7.9h-3.9V351.1L416.8,351.1z"/>
	<polygon class="st3" points="441,356.3 441,383.3 434.2,383.3 434.2,356.3 429.2,356.3 429.2,351.1 446,351.1 446,356.3 441,356.3 
			"/>
	<path class="st3" d="M455.4,371.1c1,1,2,2,3.9,4.3l4.4,5.3l-5.5,3.5l-13.9-17.1l5.1-3.9c1.5,2.1,2.5,2.9,3.8,2.9c1.1,0,2-0.6,2-2.4
		v-7.3h-12.6v-5.2h24.1v5.2H462v7.4c0,4.7-2.8,6.7-6.2,7.1c-0.2,0-0.4,0.1-0.5,0.1V371.1L455.4,371.1z"/>
	<path class="st3" d="M474.5,384c-3.6-2.5-7.6-7.3-7.6-13.7c0-7,5.3-9.6,10-9.6h6v-4.4h-19.4v-5.2h31.3v5.2h-5.1v27h-6.8v-16.9H478
		c-2.3,0-4.2,1.2-4.2,4.1c0,3.7,2.2,6.9,5.5,9.2L474.5,384L474.5,384z"/>
	<path class="st3" d="M300.2,403.1c-7.9,0-13.6-4.9-16.2-8.4l4.7-4.4c3.1,4.5,6.7,7.4,11.4,7.4c2.2,0,4.3-0.9,4.3-3.3
		c0-1.6-1.1-2.5-2.6-2.5c-1.6,0-2.6,0.8-3.3,2l-4.4-3.8c1.8-2.3,4.2-3.6,8.2-3.6c4.9,0,8.7,2.9,8.7,7.8
		C311,398.8,307.9,403.1,300.2,403.1L300.2,403.1z"/>
	<polygon class="st3" points="270.3,371.4 257,371.4 257,364.7 270.3,364.7 270.3,371.4 	"/>
	<path class="st4" d="M327.9,15.7H185.6c-2.8,0-5.1,2.3-5.1,5.1v120.6c0,2.8,2.3,5.1,5.1,5.1h142.3c2.8,0,5.1-2.3,5.1-5.1V20.8
		C333,18,330.7,15.7,327.9,15.7L327.9,15.7z M229.9,99.4c-5.5,0-5.5-8.4,0-8.4C235.4,91,235.4,99.4,229.9,99.4L229.9,99.4z"/>
	<path class="st0" d="M256.3,33.6c-27.7,0-50.2,22.5-50.2,50.2c0,27.7,22.4,50.2,50.2,50.2c27.7,0,50.1-22.5,50.1-50.2
		C306.4,56.1,283.9,33.6,256.3,33.6L256.3,33.6z M229.9,99.4c-5.5,0-5.5-8.4,0-8.4C235.4,91,235.4,99.4,229.9,99.4L229.9,99.4z"/>
	<path class="st5" d="M271.9,62.5l6.1-6.8l1.8-2c4.4,1.9,9.2,1.1,12.9-3.1c3.6-4.2,4.6-10,3.1-15.1l-7.3,8.3l-7.3-2l-2.2-7.8
		l7.3-8.3c-4.8-1.5-10.2,0-13.8,4.1c-3.7,4.2-4.1,9.4-2.1,14l0.3-0.3l-10.1,11.5L271.9,62.5L271.9,62.5z"/>
	<path class="st6" d="M272.5,63l-1.1-1l8.1-9.3l0.5,0.2c4.4,1.8,8.8,0.8,12.1-2.9c3.1-3.5,4.3-8.4,3.3-13l-6.7,7.6l-8.1-2.1
		l-2.4-8.7l6.7-7.6c-4.3-0.8-8.8,0.7-11.8,4.2c-3.2,3.7-4,8.5-2,13.1l-0.2,0.1l0.4,0.4l-1.1,1.3L261,55.7l-1.1-1.1l9.5-10.8
		c-1.9-5.1-1-10.4,2.5-14.4c3.7-4.3,9.3-5.9,14.5-4.4l1.2,0.3l-7.8,8.9l1.9,6.9l6.5,1.7l7.8-8.9l0.4,1.2c1.7,5.5,0.5,11.6-3.2,15.9
		c-3.5,4-8.3,5.3-13.2,3.4l-1.4,1.6L272.5,63L272.5,63z"/>
	<path class="st5" d="M220.7,98.8l-15,15.9c0,0,0,0-0.1,0.1c-2.3,2.5-2.3,6.4,0.2,8.8c2.5,2.4,6.4,2.3,8.7-0.2c0,0,0.1,0,0.1-0.1
		l14.9-15.9L220.7,98.8L220.7,98.8z M210.6,121.5c-1,0.4-2.2-0.1-2.6-1.1c-0.4-1.1,0.1-2.2,1.1-2.7c1.1-0.4,2.2,0.1,2.6,1.1
		C212.1,119.8,211.6,121,210.6,121.5L210.6,121.5z"/>
	<path class="st6" d="M210.1,126L210.1,126c-1.8,0-3.5-0.7-4.7-1.9c-2.7-2.6-2.9-7-0.3-9.8l0.1-0.1l15.5-16.5l9.9,9.5l-15.4,16.4
		c-0.1,0.1-0.1,0.1-0.1,0.1C213.7,125.3,212,126,210.1,126L210.1,126z M205.7,115.8l0.4-0.5l14.5-15.5l7.9,7.7l-14.5,15.3
		c0,0,0,0.1-0.1,0.1c-1,1.1-2.4,1.7-3.9,1.7c-1.4,0-2.7-0.5-3.8-1.5C204.3,121.2,204.1,118,205.7,115.8L205.7,115.8z M209.8,122.3
		c-1.1,0-2.1-0.7-2.5-1.7c-0.3-0.6-0.3-1.4,0-2.1c0.3-0.6,0.8-1.2,1.5-1.5c0.3-0.2,0.6-0.2,1-0.2c1.2,0,2.1,0.7,2.5,1.8
		c0.6,1.4-0.1,3-1.5,3.6C210.5,122.3,210.2,122.3,209.8,122.3L209.8,122.3z M209.8,118.2c-0.2,0-0.3,0-0.5,0.1
		c-0.3,0.1-0.6,0.4-0.8,0.7c-0.1,0.3-0.1,0.7,0,1.1c0.3,0.7,1.1,1,1.7,0.8c0.7-0.3,1-1.1,0.8-1.8
		C210.9,118.6,210.4,118.2,209.8,118.2L209.8,118.2z"/>
	<path class="st2" d="M304.1,55.1L191.7,98.5l3.7,9.9l30.7-11.9c-0.3-2.3,1.2-4.9,4.2-4.8c1.6,0.1,2.7,0.8,3.4,1.9L307.9,65l7.2-8.5
		L304.1,55.1L304.1,55.1z"/>
	<path class="st0" d="M271.6,63.5l-17.6-10.6l-15,6.9L227.6,65l-13.8,23.4l9.3,9.6l11.4,11.8l41.4-32.8
		C276.1,66.3,271.6,63.5,271.6,63.5L271.6,63.5z M229.9,99.4c-5.5,0-5.5-8.4,0-8.4C235.4,91,235.4,99.4,229.9,99.4L229.9,99.4z"/>
	<polygon class="st0" points="310.7,55.8 312.3,59.2 314.6,56.1 310.7,55.8 	"/>
	<path class="st6" d="M303.9,54.3L190.8,98.6l4.7,10.8l29.8-11.3c-0.2-0.5-1.5-0.9-1.5-1.4l-27.4,10.7l-3.4-7.9L304.1,56l9.3,1
		l-5.9,6.9L233.1,93c0.4,0.4,0.9,0.6,1.1,1.1l74.4-29l8.1-9.6L303.9,54.3L303.9,54.3z"/>
	<polygon class="st4" points="311.3,56.7 304.1,56 307.6,63.9 312.1,58.5 311.3,56.7 	"/>
	<polygon class="st7" points="304.1,56 307.6,63.9 304.1,56 	"/>
	<polygon class="st6" points="306.7,64.2 303.3,56.3 305,55.7 308.4,63.6 306.7,64.2 	"/>
	<path class="st0" d="M330.4,179.9c-0.4-0.6-1.2-1-1.9-1H187.3c-0.7,0-1.3,0.3-1.8,0.9l-14.1,16.7c-0.6,0.7-0.7,1.7-0.3,2.6
		c0.4,0.8,1.2,1.3,2.1,1.3l167,0c0.8,0,1.6-0.5,2-1.3c0.4-0.7,0.4-1.7-0.2-2.4L330.4,179.9L330.4,179.9z M325.9,181.9l1.4,2.3h-5.5
		l-1.1-2.3H325.9L325.9,181.9z M266.2,181.9h5.7l0.1,2.3h-5.9L266.2,181.9L266.2,181.9z M266,188h6.1l0.1,2.3h-6.3L266,188L266,188z
		 M255.3,181.9h5.7l-0.1,2.3H255L255.3,181.9L255.3,181.9z M254.5,188h6.2l-0.2,2.3h-6.3L254.5,188L254.5,188z M244.5,181.9h5.6
		l-0.4,2.3H244L244.5,181.9L244.5,181.9z M243,188h6.1l-0.4,2.3h-6.3L243,188L243,188z M233.7,181.9h5.6l-0.7,2.3h-5.7L233.7,181.9
		L233.7,181.9z M231.5,188h6l-0.7,2.3h-6.2L231.5,188L231.5,188z M222.9,181.9h5.5l-0.9,2.3h-5.7L222.9,181.9L222.9,181.9z M220,188
		h6l-0.9,2.3H219L220,188L220,188z M212.1,181.9h5.4l-1.1,2.3h-5.6L212.1,181.9L212.1,181.9z M201.3,181.9h5.3l-1.4,2.3h-5.4
		L201.3,181.9L201.3,181.9z M190.6,181.9h5.1l-1.6,2.3h-5.3L190.6,181.9L190.6,181.9z M185.5,196.2h-6.2l1.8-2.3h6L185.5,196.2
		L185.5,196.2z M189.7,190.3h-5.8l1.8-2.3h5.6L189.7,190.3L189.7,190.3z M198,196.2h-6.4l1.6-2.3h6.2L198,196.2L198,196.2z
		 M201.5,190.3h-5.9l1.6-2.3h5.7L201.5,190.3L201.5,190.3z M210.4,196.2h-6.5l1.3-2.3h6.3L210.4,196.2L210.4,196.2z M213.3,190.3
		h-6.1l1.3-2.3h5.9L213.3,190.3L213.3,190.3z M216.2,196.2l1.1-2.3h55.1l0.1,2.3H216.2L216.2,196.2z M277,181.9l0.2,2.3h5.9
		l-0.4-2.3H277L277,181.9z M277.5,188H289l-1.1-6.1h5.6l2.2,8.4h-18.1L277.5,188L277.5,188z M278,196.2l-0.2-2.3h6.6l0.4,2.3H278
		L278,196.2z M290.5,196.2l-0.4-2.3h6.6l0.6,2.3H290.5L290.5,196.2z M298.8,181.9h5.6l0.8,2.3h-5.8L298.8,181.9L298.8,181.9z
		 M300.6,188h6.1l0.8,2.3h-6.2L300.6,188L300.6,188z M302.9,196.2l-0.6-2.3h6.5l0.8,2.3H302.9L302.9,196.2z M309.7,181.9h5.5
		l1.1,2.3h-5.6L309.7,181.9L309.7,181.9z M312.1,188h5.9l1.1,2.3H313L312.1,188L312.1,188z M315.3,196.2l-0.9-2.3h6.4l1.1,2.3H315.3
		L315.3,196.2z M323.6,188h5.8l1.3,2.3h-6.1L323.6,188L323.6,188z M327.8,196.2l-1.2-2.3h6.3l1.4,2.3H327.8L327.8,196.2z"/>
	<path class="st0" d="M225.7,171.6c-2.3,2.3,1.3,3.5,1.3,3.5h29.3h0.1h0.1h29.3c0,0,3.6-1.3,1.3-3.5c-2.3-2.3-8.4-3.9-9-13.6
		c-0.1-0.7,0-3.8,0-7.7h-43.3c0,4,0,7,0,7.7C234.2,167.7,228,169.3,225.7,171.6L225.7,171.6z"/>
	<path class="st0" d="M326.9,150.4H186.6c-5.4,0-9.8-4.4-9.8-9.9V21.6c0-5.4,4.4-9.8,9.8-9.8h140.3c5.4,0,9.8,4.4,9.8,9.8v118.9
		C336.7,146,332.3,150.4,326.9,150.4L326.9,150.4z M186.6,16.6c-2.8,0-5,2.3-5,5v118.9c0,2.8,2.3,5.1,5,5.1h140.3
		c2.8,0,5.1-2.2,5.1-5.1V21.6c0-2.7-2.3-5-5.1-5H186.6L186.6,16.6z"/>
	<path class="st0" d="M326.9,150.4H186.6c-5.4,0-9.8-4.4-9.8-9.9V21.6c0-5.4,4.4-9.8,9.8-9.8h140.3c5.4,0,9.8,4.4,9.8,9.8v118.9
		C336.7,146,332.3,150.4,326.9,150.4L326.9,150.4z M186.6,16.6c-2.8,0-5,2.3-5,5v118.9c0,2.8,2.3,5.1,5,5.1h140.3
		c2.8,0,5.1-2.2,5.1-5.1V21.6c0-2.7-2.3-5-5.1-5H186.6L186.6,16.6z"/>
	<polygon class="st4" points="229,83.4 229.4,83.9 229,83.4 	"/>
	<path class="st4" d="M301,145.4c0.6-0.5-1-0.6-0.4-1.2c-0.5-0.5-20.3,1.2-20.6,0.9c-7-7.1,4.4,4.5-2.6-2.7
		c-7.7-7.8-15.3-15.6-23-23.3c-0.6-0.5-1.6-0.8-2.5-1.1c-2.4-0.7-4.9-1-7.1-2.1c-1.9-1-3.5-2.8-5.1-4.4c-2.1-1.9-4-3.9-6-5.7
		c2.6-2.7,5.9-4.4,6.5-8.3c0-0.3,0.5-0.4,0.7-0.7c1.2-0.9,2.3-1.7,3.4-2.6c1.8-1.6,3.2-3.3,2.8-5.9c-0.1-0.3,0.3-0.7,0.6-1
		c1.9-2,3.8-3.9,5.7-5.9c1.3-0.2,2.6-0.4,4-0.6c-0.2,0.8-0.3,1.6-0.7,2.4c-1.3,2.1-0.7,4.2,0.3,6c1.9,3.7,4.1,7.2,6.3,10.8
		c0.4,0.6,1.3,0.8,2,1.3c-0.1-0.7,0.2-1.7-0.2-2.3c-1.7-3.1-3.5-6-5.3-9.1c-1-1.7-2.3-3.4-1.4-5.5c0.9-2.4,2-4.7,3.1-7
		c2-4.2,2-4.2-1.5-7.3c-0.1-0.1-0.3-0.2-0.5-0.4c-1.3-1.4-2.9-1.4-4.5-0.6c-1.5,0.8-3.1,1.5-4.6,2.3c-1.9,1-3.6,0.7-5-0.8
		c-0.7-0.7-1.5-1.3-2.2-2c-1.3-1.2-1.1-2.3,0.1-3.3c3.4-2.8,6.8-5.6,10.2-8.4c1.4-1.1,2.8-1.2,4.3-0.2c4.4,3,8.7,5.8,13.1,8.6
		c1.7,1.1,2.7,2.5,2.9,4.7c0.7,5.8,1.1,11.6,2.1,17.3c1,5.5-0.3,10.1-3.4,14.5c-0.6,0.9-1.1,1.7-1.9,2.6c-1.1,1.1-0.7,2,0.3,3
		c4.1,3.7,8.2,7.4,12.2,11.1c5.9,5.5,11.9,10.9,17.9,16.3c0.5,0.5,1.1,0.9,1.6,1.3c-0.4-1.1-1.1-1.8-1.9-2.6
		c-8.2-8.1-16.5-16.1-24.7-24.2c-1.2-1.1-3.1-2.2-3.2-3.6c-0.2-1.2,1.4-2.8,2.1-4.2c0.8-1.4,1.4-2.8,2.2-4.2
		c0.2-0.4,0.6-0.8,0.9-1.4c15.7,14.2,35.9,31.7,51.7,45.8L301,145.4L301,145.4z"/>
	<path class="st4" d="M231.7,88.4c2,1.9,4,3.9,6,5.8c1.5,1.4,2.3,1.3,3.6-0.2c0.9-1,1.8-2,2.8-2.8c1.3-1.2,1.1-2.3,0-3.4
		c-4.1-4-8.2-8-12.4-11.9c-1.1-1-2.3-1-3.3,0.1c-1,1-1.9,2-2.9,3c-1.2,1.2-1.2,2.4,0.1,3.6C227.7,84.4,229.7,86.4,231.7,88.4
		L231.7,88.4z"/>
	<path class="st4" d="M237.8,78.9c2,1.9,4.1,3.9,6.1,5.9c1.3,1.2,2.4,1.2,3.6-0.1c0.9-0.9,1.9-1.9,2.7-2.8c1.1-1.2,1.2-2.4,0.1-3.5
		c-4-4-8.1-7.9-12.3-11.8c-1.2-1.1-2.5-1.1-3.7,0.2c-0.9,1-1.9,2-2.9,3c-1.1,1.1-1.1,2.2,0.1,3.2C233.7,74.9,235.7,76.9,237.8,78.9
		L237.8,78.9z"/>
	<path class="st4" d="M232,91.5c-0.2-0.2-0.4-0.5-0.6-0.7c0-0.1,0,0,0,0c-1.6-1.6-3.2-3.2-4.8-4.7c-2-1.8-2.9-1.8-4.8,0.1
		c-0.7,0.7-1.4,1.5-2.1,2.2c-1.3,1.2-1.3,2.4-0.1,3.6c3.6,3.5,7.3,7.1,11,10.6c1,1,2.1,1,3.1-0.1c1.1-1,2-2.1,3-3.1
		c1.3-1.3,1-2.4-0.2-3.6c-1.1-1-2.2-2.1-3.3-3.1L232,91.5L232,91.5z"/>
	<path class="st4" d="M248.8,74.2c1.6,1.6,3.1,3,4.6,4.4c1,1,1.9,1,2.9-0.1c1.1-1.2,2.3-2.3,3.1-3.6c0.4-0.6,0.6-2,0.2-2.6
		c-0.7-1-1.5-2.5-3.3-1.7C253.9,71.9,251.4,73,248.8,74.2L248.8,74.2z"/>
	<path class="st4" d="M239.8,65.6c2.4-2,4.5-3.9,6.7-5.8c-0.1-0.2-0.1-0.3-0.2-0.5c-0.8,0.2-2,0.1-2.5,0.5
		C242.4,61.6,239.8,62.6,239.8,65.6L239.8,65.6z"/>
</g>
</svg>
