<svg xmlns="http://www.w3.org/2000/svg" viewBox="0 0 482.45 220.06"><defs><style>.cls-1{fill:#808184;}.cls-10,.cls-2{fill:#db232c;}.cls-2,.cls-3,.cls-4{fill-rule:evenodd;}.cls-3{fill:#a5cd39;}.cls-4,.cls-6{fill:#0094d9;}.cls-5{fill:#404041;}.cls-7,.cls-8,.cls-9{fill:none;stroke-miterlimit:2.61;stroke-width:0.22px;}.cls-7{stroke:#a5cd39;}.cls-8{stroke:#0094d9;}.cls-9{stroke:#db232c;}.cls-10{font-size:31.51px;font-family:MyriadPro-Bold, Myriad Pro;font-weight:700;}</style></defs><title>NSDC</title><g id="Layer_2" data-name="Layer 2"><g id="Layer_1-2" data-name="Layer 1"><rect class="cls-1" x="180.57" y="43.75" width="196.97" height="1.71"/><path class="cls-2" d="M132.11,10.39a292.75,292.75,0,0,1-31.45,32.9A170.21,170.21,0,0,1,85.78,55.05c-1.53,1.07-2,3.19-3.45,4.15-3,1.91-7,2.52-10,4L86.27,88.42q27.89-14.79,77-21.21a15.09,15.09,0,0,0-4.09-7.62q-26,6.5-59.28,7c-2.77-.25-3.25-1.61-1.47-4.08q10.31-18.72,37.8-45.37c-.79-3.52-2.14-5.78-4.07-6.79"/><path class="cls-2" d="M138.33,42.41a11.81,11.81,0,1,1-16.12-4.36,11.8,11.8,0,0,1,16.12,4.36"/><path class="cls-3" d="M31.12,10.39Q63,48.77,90.84,63.24L77,88.42Q49.07,73.63,0,67.21a15,15,0,0,1,4.1-7.62q26,6.5,59.27,7,4.16-.37,1.47-4.08Q54.54,43.83,27,17.18q1.18-5.28,4.08-6.79"/><path class="cls-3" d="M28,44.9a11.81,11.81,0,1,1,4.14,16.17A11.8,11.8,0,0,1,28,44.9"/><path class="cls-4" d="M114.14,1q-23,58.8-15.69,93.41,16.78,55.37,20.11,57.11-5.13,2.59-10.51-.82-11.26-41-25-57.2-3.14-.48-5.73,5.33-11.26,17.53-22.25,53.92-7.65,1.92-9.29-1.64,17.07-38.84,22.12-67Q69,51.15,49.37,1.17A15.17,15.17,0,0,1,58,1.08Q64.88,27,80.47,56.38q2.34,3.46,4.28-.68,11.43-18.06,21.49-55c3.45-1,6.09-.91,7.9.29"/><path class="cls-4" d="M82,12A11.81,11.81,0,1,1,70.22,23.79,11.81,11.81,0,0,1,82,12"/><path class="cls-5" d="M309.4,54.27h4.38V82.71H309.4Zm-4.72,17.44v11H300.8l-.07-3.13a7.91,7.91,0,0,1-2.53,2.71,6.06,6.06,0,0,1-3.26.92,5.43,5.43,0,0,1-4.16-1.7,6.21,6.21,0,0,1-1.58-4.39,5.54,5.54,0,0,1,2.26-4.82q2.25-1.6,6.75-1.61h2.26v-.28a4.08,4.08,0,0,0-1.11-3,4.25,4.25,0,0,0-3.11-1.08,7.81,7.81,0,0,0-2.37.38,12.24,12.24,0,0,0-2.52,1.17l-.07-3.52a15.26,15.26,0,0,1,3-1,13.59,13.59,0,0,1,3-.33c2.58,0,4.45.7,5.63,2.1S304.68,68.67,304.68,71.71Zm-5.76,1.78a7.67,7.67,0,0,0-4,.85,2.76,2.76,0,0,0-1.36,2.52,2.83,2.83,0,0,0,.77,2,2.76,2.76,0,0,0,2,.79,3.67,3.67,0,0,0,3-1.44,5.74,5.74,0,0,0,1.17-3.73v-1ZM285.7,71.23V82.71h-4.43V72.29a7.39,7.39,0,0,0-.82-3.94,2.8,2.8,0,0,0-2.54-1.28A3.37,3.37,0,0,0,275,68.7a7.91,7.91,0,0,0-1.08,4.43v9.58h-4.38V63.44h4v3.49A7.39,7.39,0,0,1,276,64a6.32,6.32,0,0,1,3.57-1,5.31,5.31,0,0,1,4.56,2.1A10.41,10.41,0,0,1,285.7,71.23Zm-29.25-8.29a8.55,8.55,0,0,1,6.68,2.69,10.68,10.68,0,0,1,2.43,7.43,10.75,10.75,0,0,1-2.44,7.43,9.51,9.51,0,0,1-13.31,0,10.75,10.75,0,0,1-2.43-7.44,10.72,10.72,0,0,1,2.42-7.43A8.47,8.47,0,0,1,256.45,62.94Zm0,3.58a3.77,3.77,0,0,0-3.23,1.79A8.06,8.06,0,0,0,252,73a8.05,8.05,0,0,0,1.24,4.69,3.85,3.85,0,0,0,6.49,0,8.15,8.15,0,0,0,1.22-4.7,8.14,8.14,0,0,0-1.23-4.72A3.79,3.79,0,0,0,256.45,66.52ZM239.1,54.8h4.38v4.8H239.1Zm0,8.64h4.38V82.71H239.1Zm-7.62-6.28v6.28h4.12v3.63h-4.12v8.45a5.94,5.94,0,0,0,.6,3.09,2.1,2.1,0,0,0,1.93.94,3.82,3.82,0,0,0,.78-.08,7.37,7.37,0,0,0,.91-.25l.06,3.47a10.23,10.23,0,0,1-1.5.33,11.25,11.25,0,0,1-1.53.11c-2,0-3.46-.56-4.35-1.69s-1.31-3-1.31-5.62V67.07h-3.38V63.44h3.58V58.76ZM220.83,71.71v11H217l-.07-3.13a7.84,7.84,0,0,1-2.54,2.71,6,6,0,0,1-3.26.92,5.43,5.43,0,0,1-4.15-1.7,6.21,6.21,0,0,1-1.58-4.39,5.54,5.54,0,0,1,2.26-4.82q2.25-1.6,6.75-1.61h2.25v-.28a4.08,4.08,0,0,0-1.1-3,4.25,4.25,0,0,0-3.11-1.08,7.81,7.81,0,0,0-2.37.38,12.24,12.24,0,0,0-2.52,1.17l-.07-3.52a15.26,15.26,0,0,1,3-1,13.59,13.59,0,0,1,3-.33c2.58,0,4.45.7,5.63,2.1S220.83,68.67,220.83,71.71Zm-5.76,1.78a7.67,7.67,0,0,0-4,.85,2.76,2.76,0,0,0-1.36,2.52,2.83,2.83,0,0,0,.77,2,2.76,2.76,0,0,0,2,.79,3.68,3.68,0,0,0,3-1.44,5.74,5.74,0,0,0,1.16-3.73v-1ZM181.92,56.33h5.8l8.59,18.43c.22.51.47,1.17.74,2s.54,1.75.81,2.8c-.19-1.25-.33-2.39-.42-3.41s-.14-1.91-.14-2.64V56.33h4.18V82.71h-5.71l-8.86-18.87a12.27,12.27,0,0,1-.69-1.85c-.23-.77-.46-1.67-.69-2.71.17,1.55.32,2.87.42,4s.15,1.89.15,2.33V82.71h-4.18Z"/><path class="cls-6" d="M477.36,91.17v6.55h4.29v3.79h-4.29v8.81a6.18,6.18,0,0,0,.62,3.22,2.2,2.2,0,0,0,2,1,4.17,4.17,0,0,0,.81-.09,6.36,6.36,0,0,0,.94-.26l.07,3.62a10.07,10.07,0,0,1-1.56.34,10.87,10.87,0,0,1-1.6.12c-2.11,0-3.61-.59-4.53-1.76s-1.37-3.13-1.37-5.86v-9.12h-3.53V97.72H473V92.84Zm-11.11,14.67v12h-4.62V107a7.73,7.73,0,0,0-.85-4.11,2.92,2.92,0,0,0-2.65-1.33,3.5,3.5,0,0,0-3.06,1.69,8.18,8.18,0,0,0-1.13,4.62v10h-4.57V97.72h4.18v3.64a7.58,7.58,0,0,1,2.61-3.11,6.57,6.57,0,0,1,3.72-1.06,5.56,5.56,0,0,1,4.76,2.2C465.71,100.85,466.25,103,466.25,105.84Zm-24.61.12a7.39,7.39,0,0,0-1.27-4,3.39,3.39,0,0,0-2.81-1.42,3.62,3.62,0,0,0-2.92,1.42,7.33,7.33,0,0,0-1.4,4Zm4.14,1.59v1.62H433.24a5.83,5.83,0,0,0,1.74,4,5.74,5.74,0,0,0,4.09,1.46,9.72,9.72,0,0,0,2.7-.37,10.13,10.13,0,0,0,2.54-1.1v4a12.57,12.57,0,0,1-2.82.9,16.57,16.57,0,0,1-3.23.3,8.77,8.77,0,0,1-7-2.89c-1.67-1.93-2.51-4.61-2.51-8a10.9,10.9,0,0,1,2.44-7.4,8.08,8.08,0,0,1,6.39-2.83,7.22,7.22,0,0,1,6,2.73Q445.78,102.64,445.78,107.55Zm-33-6a7.9,7.9,0,0,1,2.6-3.2,6.32,6.32,0,0,1,3.67-1.08,5,5,0,0,1,4.39,2.24,11.16,11.16,0,0,1,1.55,6.38v12h-4.57V107a8.41,8.41,0,0,0-.75-4,2.5,2.5,0,0,0-2.32-1.31,3.35,3.35,0,0,0-2.95,1.65,8.32,8.32,0,0,0-1.09,4.58v10h-4.56V107a8.33,8.33,0,0,0-.76-4,2.53,2.53,0,0,0-2.35-1.31,3.36,3.36,0,0,0-3,1.65,8.32,8.32,0,0,0-1.08,4.58v10H397.1V97.72h4.13v3.64a7.74,7.74,0,0,1,2.56-3.09,6.32,6.32,0,0,1,3.6-1,5.11,5.11,0,0,1,3.26,1.13A6.84,6.84,0,0,1,412.8,101.51Zm-28.86-.35a3.89,3.89,0,0,0-3.36,1.76,8.11,8.11,0,0,0-1.24,4.79,8.41,8.41,0,0,0,1.2,4.76,3.77,3.77,0,0,0,6.41,0,8.75,8.75,0,0,0,1.18-4.87,8.34,8.34,0,0,0-1.15-4.67A3.5,3.5,0,0,0,383.94,101.16Zm-4.6,13.59V126.1h-4.56V97.72h4.1v3.83a7.91,7.91,0,0,1,2.68-3.24,6.75,6.75,0,0,1,9.23,1.73,12.55,12.55,0,0,1,2.08,7.59,12.81,12.81,0,0,1-2.13,7.66,6.45,6.45,0,0,1-5.46,3,6.65,6.65,0,0,1-3.44-.88A7,7,0,0,1,379.34,114.75ZM361.16,97.19a8.88,8.88,0,0,1,7,2.81c1.69,1.87,2.54,4.46,2.54,7.75a11.18,11.18,0,0,1-2.55,7.75,9.92,9.92,0,0,1-13.88,0,11.21,11.21,0,0,1-2.53-7.75c0-3.29.84-5.88,2.52-7.75A8.84,8.84,0,0,1,361.16,97.19Zm0,3.74a3.93,3.93,0,0,0-3.37,1.87,9.85,9.85,0,0,0,0,9.78,4,4,0,0,0,6.77,0,8.46,8.46,0,0,0,1.27-4.9,8.36,8.36,0,0,0-1.29-4.92A3.91,3.91,0,0,0,361.16,100.93ZM343.07,88.15h4.56v29.66h-4.56ZM335.41,106a7.48,7.48,0,0,0-1.27-4,3.4,3.4,0,0,0-2.82-1.42,3.6,3.6,0,0,0-2.91,1.42,7.41,7.41,0,0,0-1.41,4Zm4.13,1.59v1.62H327a5.87,5.87,0,0,0,1.74,4,5.76,5.76,0,0,0,4.1,1.46,9.83,9.83,0,0,0,2.7-.37,10.22,10.22,0,0,0,2.53-1.1v4a12.65,12.65,0,0,1-2.81.9,16.64,16.64,0,0,1-3.23.3,8.74,8.74,0,0,1-7-2.89c-1.68-1.93-2.52-4.61-2.52-8A10.9,10.9,0,0,1,325,100a8,8,0,0,1,6.38-2.83,7.26,7.26,0,0,1,6,2.73Q339.54,102.64,339.54,107.55ZM303,97.72h4.91l4.26,15.44,4.36-15.44h4.57l-6.48,20.09h-5.27ZM297.48,106a7.39,7.39,0,0,0-1.27-4,3.39,3.39,0,0,0-2.81-1.42,3.62,3.62,0,0,0-2.92,1.42,7.41,7.41,0,0,0-1.41,4Zm4.14,1.59v1.62H289.07a5.92,5.92,0,0,0,1.74,4,5.78,5.78,0,0,0,4.1,1.46,9.72,9.72,0,0,0,2.7-.37,10.07,10.07,0,0,0,2.53-1.1v4a12.32,12.32,0,0,1-2.81.9,16.64,16.64,0,0,1-3.23.3,8.75,8.75,0,0,1-7-2.89c-1.67-1.93-2.51-4.61-2.51-8a10.9,10.9,0,0,1,2.44-7.4,8.07,8.07,0,0,1,6.38-2.83,7.23,7.23,0,0,1,6,2.73Q301.62,102.64,301.62,107.55ZM260.56,90.3h7a25.37,25.37,0,0,1,5.32.48,9.73,9.73,0,0,1,3.61,1.5,11.69,11.69,0,0,1,3.94,4.81,17,17,0,0,1,1.31,6.92,16.56,16.56,0,0,1-1.33,6.9,11.52,11.52,0,0,1-4,4.79,9.91,9.91,0,0,1-3.75,1.59,24.55,24.55,0,0,1-5.48.52h-6.61Zm4.84,4.08v19.19h2.78a8,8,0,0,0,6.3-2.54,10.34,10.34,0,0,0,2.25-7.1q0-4.65-2.24-7.09A8.3,8.3,0,0,0,268,94.38Zm-25.12-6.23h4.57v29.66h-4.57Zm-9.77,0h4.57v29.66h-4.57Zm-9.76.57h4.56v5h-4.56Zm0,9h4.56v20.09h-4.56Zm-19.1-9.57h4.57v17.6l6-8h5.13l-7,8.63,7.83,11.46h-5.58l-6.4-10.55v10.55h-4.57ZM196.27,91l-.42,4.33a12.9,12.9,0,0,0-2.72-1,10.64,10.64,0,0,0-2.67-.35,5,5,0,0,0-3,.81A2.63,2.63,0,0,0,186.36,97c0,1.2,1.31,2.55,3.91,4l.59.33a15.77,15.77,0,0,1,5,4,7.6,7.6,0,0,1,1.33,4.48A8.16,8.16,0,0,1,194.6,116a9.47,9.47,0,0,1-6.76,2.42,21,21,0,0,1-5.79-1.39c-.29-.11-.5-.19-.65-.26l.45-4.7a23.89,23.89,0,0,0,3.45,1.63,7.8,7.8,0,0,0,2.54.48,4.73,4.73,0,0,0,3.15-1,3.21,3.21,0,0,0,1.21-2.56c0-1.34-1.31-2.82-3.92-4.42l-.41-.25-.5-.29a16.41,16.41,0,0,1-4.08-3.17,7.15,7.15,0,0,1-1.28-2.29,8.37,8.37,0,0,1-.44-2.71A7.17,7.17,0,0,1,184,91.85a9.41,9.41,0,0,1,6.5-2.15,17,17,0,0,1,4.6,1Z"/><path class="cls-5" d="M372.63,139.54V151H368.2V140.6a7.39,7.39,0,0,0-.82-3.94,2.79,2.79,0,0,0-2.54-1.27A3.39,3.39,0,0,0,361.9,137a7.91,7.91,0,0,0-1.08,4.43V151h-4.38V131.75h4v3.49a7.39,7.39,0,0,1,2.51-3,6.4,6.4,0,0,1,3.57-1,5.31,5.31,0,0,1,4.56,2.1,10.43,10.43,0,0,1,1.55,6.19m-29.24-8.29a8.54,8.54,0,0,1,6.67,2.69,12.55,12.55,0,0,1,0,14.86,9.51,9.51,0,0,1-13.31,0,12.65,12.65,0,0,1,0-14.87A8.48,8.48,0,0,1,343.39,131.25Zm0,3.58a3.77,3.77,0,0,0-3.24,1.79,9.51,9.51,0,0,0,0,9.39,3.86,3.86,0,0,0,6.49,0,9.69,9.69,0,0,0,0-9.43A3.79,3.79,0,0,0,343.39,134.83ZM326,123.12h4.38v4.79H326Zm0,8.63h4.38V151H326Zm-7.62-6.27v6.27h4.12v3.64h-4.12v8.45a6,6,0,0,0,.6,3.09,2.11,2.11,0,0,0,1.93.93,3.82,3.82,0,0,0,.78-.08,5.55,5.55,0,0,0,.9-.25l.07,3.47a9.08,9.08,0,0,1-1.5.33,9.86,9.86,0,0,1-1.53.12,5.19,5.19,0,0,1-4.35-1.7q-1.31-1.68-1.31-5.62v-8.74h-3.38v-3.64h3.58v-4.68ZM307.76,140v11h-3.88l-.07-3.12a7.8,7.8,0,0,1-2.54,2.7,5.92,5.92,0,0,1-3.25.92,5.4,5.4,0,0,1-4.16-1.7,6.19,6.19,0,0,1-1.58-4.39,5.54,5.54,0,0,1,2.26-4.82q2.25-1.61,6.75-1.6h2.26v-.28a4.09,4.09,0,0,0-1.11-3.06,4.25,4.25,0,0,0-3.11-1.08A7.88,7.88,0,0,0,297,135a12.24,12.24,0,0,0-2.52,1.17l-.07-3.53a15.2,15.2,0,0,1,3-1,13.08,13.08,0,0,1,3-.34c2.58,0,4.45.7,5.63,2.1S307.76,137,307.76,140ZM302,141.81a7.78,7.78,0,0,0-4,.84,3,3,0,0,0-.58,4.57,2.72,2.72,0,0,0,2,.79,3.67,3.67,0,0,0,3-1.44,5.71,5.71,0,0,0,1.17-3.72v-1Zm-11.25-10.34-.16,4.46a3.58,3.58,0,0,0-.73-.2,4.08,4.08,0,0,0-.79-.06,3.77,3.77,0,0,0-3.31,1.62,8.2,8.2,0,0,0-1.14,4.73v9h-4.38V131.75h3.94v3.84a7.89,7.89,0,0,1,2.08-3.23,4.46,4.46,0,0,1,3-1.07,5.29,5.29,0,0,1,.66,0C290.14,131.36,290.42,131.41,290.75,131.47Zm-23.56-.22a8.56,8.56,0,0,1,6.68,2.69,12.59,12.59,0,0,1,0,14.86,9.53,9.53,0,0,1-13.32,0,12.65,12.65,0,0,1,0-14.87A8.5,8.5,0,0,1,267.19,131.25Zm0,3.58a3.77,3.77,0,0,0-3.24,1.79,9.51,9.51,0,0,0,0,9.39,3.86,3.86,0,0,0,6.49,0,9.62,9.62,0,0,0,0-9.43A3.78,3.78,0,0,0,267.19,134.83Zm-20.54.23a3.73,3.73,0,0,0-3.22,1.68,7.84,7.84,0,0,0-1.19,4.59,8,8,0,0,0,1.15,4.57,3.63,3.63,0,0,0,6.15,0,8.36,8.36,0,0,0,1.13-4.67,8,8,0,0,0-1.1-4.48A3.36,3.36,0,0,0,246.65,135.06Zm-4.41,13V159h-4.38V131.75h3.94v3.68a7.71,7.71,0,0,1,2.57-3.11,6.48,6.48,0,0,1,8.85,1.66,12,12,0,0,1,2,7.28,12.33,12.33,0,0,1-2,7.35,6.23,6.23,0,0,1-5.24,2.84,6.34,6.34,0,0,1-3.3-.85A6.61,6.61,0,0,1,242.24,148.09Zm-7.19-16.62-.16,4.46a3.58,3.58,0,0,0-.73-.2,4.08,4.08,0,0,0-.79-.06,3.77,3.77,0,0,0-3.31,1.62,8.2,8.2,0,0,0-1.14,4.73v9h-4.38V131.75h3.94v3.84a7.89,7.89,0,0,1,2.08-3.23,4.46,4.46,0,0,1,3-1.07,5.29,5.29,0,0,1,.66,0C234.44,131.36,234.72,131.41,235.05,131.47Zm-23.56-.22a8.56,8.56,0,0,1,6.68,2.69,12.57,12.57,0,0,1,0,14.86,9.51,9.51,0,0,1-13.31,0,12.65,12.65,0,0,1,0-14.87A8.5,8.5,0,0,1,211.49,131.25Zm0,3.58a3.77,3.77,0,0,0-3.24,1.79,9.51,9.51,0,0,0,0,9.39,3.86,3.86,0,0,0,6.49,0,9.62,9.62,0,0,0,0-9.43A3.78,3.78,0,0,0,211.49,134.83Zm-11.63-9.35-.3,4.17-.35-.14a14.23,14.23,0,0,0-5.09-1.38,7.73,7.73,0,0,0-6.16,2.69,10.7,10.7,0,0,0-2.3,7.17,9.81,9.81,0,0,0,2.38,6.86,8.05,8.05,0,0,0,6.28,2.64,12.11,12.11,0,0,0,3.92-1c.62-.23,1.08-.4,1.39-.5l.39,4.18-1.27.39a17.44,17.44,0,0,1-4.82,1q-6,0-9.54-3.66T180.9,138a14.39,14.39,0,0,1,3.5-10.09,11.94,11.94,0,0,1,9.28-3.84,16.93,16.93,0,0,1,4.86,1Z"/><path class="cls-5" d="M371.61,29.42c.26-.27.52-.55.76-.85s.48-.62.71-.94l4,2.33a22.49,22.49,0,0,1-2.2,2.73,15.48,15.48,0,0,1-5,3.36A15.19,15.19,0,0,1,358,36a16.06,16.06,0,0,1-4.95-3.34,15.63,15.63,0,0,1-3.36-4.93,15.06,15.06,0,0,1,0-12A15.92,15.92,0,0,1,358,7.48a15,15,0,0,1,12,0l.79.36a7.58,7.58,0,0,1,.74.4L369,12.16a3,3,0,0,1-.4-.2,2.23,2.23,0,0,0-.41-.2,7.87,7.87,0,0,0-2-.65,10.83,10.83,0,0,0-2.13-.2,10.27,10.27,0,0,0-4.21.87,11.17,11.17,0,0,0-5.81,5.8A10.55,10.55,0,0,0,354,26a11.47,11.47,0,0,0,2.35,3.45,11.16,11.16,0,0,0,3.46,2.33,10.42,10.42,0,0,0,4.21.85,10.2,10.2,0,0,0,4.17-.85,11.42,11.42,0,0,0,3.41-2.33m-59.93-8.2q0-9.78-8.7-9.78h-7.39V32H303Q311.68,32,311.68,21.22ZM290.92,6.78h10.76q14.76,0,14.75,14.44,0,15.51-14.66,15.51H290.92ZM253.68,27.63q0-4.26-5.11-4.26H245.3q-9.2,0-9.19-8.61,0-8,9.14-8h10.49v4.66H244.67q-4,0-4,3.41,0,3.86,4,3.86H248q10.26,0,10.26,9T248,36.73H236.38V32.06h12.19Q253.69,32.06,253.68,27.63Zm-53.33,9.1-15-20.09V36.73h-4.66V6.78h2.86l15,20.08V2.16h4.57V36.73Z"/><path class="cls-3" d="M219.36,16.88a4,4,0,1,1-4,4A4,4,0,0,1,219.36,16.88Z"/><path class="cls-7" d="M219.36,16.88a4,4,0,1,1-4,4A4,4,0,0,1,219.36,16.88Z"/><path class="cls-4" d="M273.2,16.88a4,4,0,1,1-4,4A4,4,0,0,1,273.2,16.88Z"/><path class="cls-8" d="M273.2,16.88a4,4,0,1,1-4,4A4,4,0,0,1,273.2,16.88Z"/><path class="cls-2" d="M332.05,16.88a4,4,0,1,1-4,4A4,4,0,0,1,332.05,16.88Z"/><path class="cls-9" d="M332.05,16.88a4,4,0,1,1-4,4A4,4,0,0,1,332.05,16.88Z"/><text class="cls-10" transform="translate(27.77 210.66) scale(1 1.19)">T</text><text class="cls-10" transform="translate(43.33 210.66) scale(1 1.19)">r</text><text class="cls-10" transform="translate(54.96 210.66) scale(1 1.19)">a</text><text class="cls-10" transform="translate(71.6 210.66) scale(1 1.19)">n</text><text class="cls-10" transform="translate(90.06 210.66) scale(1 1.19)">s</text><text class="cls-10" transform="translate(103.73 210.66) scale(1 1.19)">f</text><text class="cls-10" transform="translate(114.23 210.66) scale(1 1.19)">o</text><text class="cls-10" transform="translate(132.41 210.66) scale(1 1.19)">r</text><text class="cls-10" transform="translate(144.35 210.66) scale(1 1.19)">m</text><text class="cls-10" transform="translate(171.45 210.66) scale(1 1.19)">i</text><text class="cls-10" transform="translate(180.08 210.66) scale(1 1.19)">n</text><text class="cls-10" transform="translate(198.55 210.66) scale(1 1.19)">g</text><text class="cls-10" transform="translate(216.98 210.66) scale(1 1.19)"> </text><text class="cls-10" transform="translate(223.35 210.66) scale(1 1.19)">t</text><text class="cls-10" transform="translate(234.91 210.66) scale(1 1.19)">h</text><text class="cls-10" transform="translate(253.38 210.66) scale(1 1.19)">e</text><text class="cls-10" transform="translate(270.01 210.66) scale(1 1.19)"> </text><text class="cls-10" transform="translate(276.38 210.66) scale(1 1.19)">s</text><text class="cls-10" transform="translate(290.05 210.66) scale(1 1.19)">k</text><text class="cls-10" transform="translate(307.45 210.66) scale(1 1.19)">i</text><text class="cls-10" transform="translate(316.08 210.66) scale(1 1.19)">l</text><text class="cls-10" transform="translate(324.71 210.66) scale(1 1.19)">l</text><text class="cls-10" transform="translate(333.34 210.66) scale(1 1.19)"> </text><text class="cls-10" transform="translate(339.71 210.66) scale(1 1.19)">l</text><text class="cls-10" transform="translate(348.34 210.66) scale(1 1.19)">a</text><text class="cls-10" transform="translate(364.98 210.66) scale(1 1.19)">n</text><text class="cls-10" transform="translate(383.44 210.66) scale(1 1.19)">d</text><text class="cls-10" transform="translate(402.23 210.66) scale(1 1.19)">s</text><text class="cls-10" transform="translate(415.9 210.66) scale(1 1.19)">c</text><text class="cls-10" transform="translate(430.24 210.66) scale(1 1.19)">a</text><text class="cls-10" transform="translate(446.87 210.66) scale(1 1.19)">p</text><text class="cls-10" transform="translate(465.81 210.66) scale(1 1.19)">e</text></g></g></svg>